<?xml version="1.0" encoding="UTF-8"?>
<svg version="1.1" xmlns="http://www.w3.org/2000/svg" width="598" height="1294">
<path d="M0 0 C35.03589313 11.67863104 64.01595025 34.2219395 80.85546875 67.4296875 C92.09421129 90.62358644 94.64441673 116.9350251 93.703125 142.3828125 C93.66854187 143.50918121 93.63395874 144.63554993 93.59832764 145.79605103 C93.31400452 154.9960049 93.31400452 154.9960049 93.05371094 159.58740234 C92.07330981 177.75048823 95.41758223 188.79138604 106.72674561 203.17990112 C108 205 108 205 108 207 C148.03412543 210.07532376 190.65360855 209.26604772 230.2421875 202.46875 C281.00044436 193.78903463 333.78316622 195.39795038 379 223 C379.70608398 223.56775146 380.41216797 224.13550293 381.13964844 224.72045898 C385.3383152 228.11730755 385.3383152 228.11730755 390.49951172 228.86962891 C393.26702597 228.11276871 395.84495668 227.14932818 398.5 226.0625 C400.46484354 225.35728454 402.43233258 224.65939823 404.40234375 223.96875 C405.36124512 223.62457031 406.32014648 223.28039063 407.30810547 222.92578125 C433.80308112 213.81377802 466.81729343 217.2484881 492 229 C501.46173092 233.6464254 510.07014232 239.00418806 518 246 C522.80906923 243.40649112 527.52515521 240.69370479 532.18286133 237.83618164 C544.55842843 230.27324578 557.45090597 224.15979038 570.6875 218.25 C571.70827637 217.78996582 572.72905273 217.32993164 573.78076172 216.85595703 C591.61907872 209 591.61907872 209 598 209 C598 257.18 598 305.36 598 355 C400.66 355 203.32 355 0 355 C0 237.85 0 120.7 0 0 Z " fill="#2B6316" transform="translate(0,939)"/>
<path d="M0 0 C0 48.18 0 96.36 0 146 C-45.02065103 146.11026158 -90.04117455 146.20256916 -135.061922 146.25532665 C-140.37900944 146.26158006 -145.69609659 146.26805168 -151.01318359 146.2746582 C-152.60096437 146.27662553 -152.60096437 146.27662553 -154.22082153 146.2786326 C-171.35228773 146.3003794 -188.48366991 146.33979696 -205.61508629 146.38576398 C-223.19813194 146.43254876 -240.78113363 146.46029968 -258.36423898 146.47044247 C-269.21089084 146.47729742 -280.05730517 146.49893532 -290.9038839 146.53958233 C-298.34536868 146.56604562 -305.78673095 146.57399286 -313.22825935 146.56750689 C-317.51942347 146.56430958 -321.81017297 146.56915381 -326.10126305 146.59602737 C-330.03610935 146.62048902 -333.9702651 146.62150493 -337.90514424 146.60449447 C-339.32258982 146.60239441 -340.74007977 146.60862781 -342.15743896 146.62441591 C-351.54887655 146.72287718 -358.62001065 145.26401949 -367 141 C-367.76684829 140.62025491 -368.53369657 140.24050981 -369.32378268 139.84925729 C-371.22818006 138.88779825 -373.08405845 137.86861014 -374.9375 136.8125 C-375.60716797 136.43303223 -376.27683594 136.05356445 -376.96679688 135.66259766 C-386.67937851 130.01687189 -396.00741535 122.89599753 -404 115 C-404 114.67 -404 114.34 -404 114 C-403.30664551 113.99589111 -402.61329102 113.99178223 -401.89892578 113.98754883 C-375.87531188 113.7186654 -358.04210871 107.88215186 -335 96 C-333.90494141 95.43539063 -332.80988281 94.87078125 -331.68164062 94.2890625 C-308.75572572 82.37459526 -287.07319976 69.03596747 -266.390625 53.55859375 C-224.19371708 22 -224.19371708 22 -212 22 C-211.67 21.34 -211.34 20.68 -211 20 C-209.04492188 19.17797852 -209.04492188 19.17797852 -206.46875 18.37890625 C-205.52241699 18.08443604 -204.57608398 17.78996582 -203.60107422 17.48657227 C-168.66044728 7.0748046 -132.64914756 5.65270455 -99.70019531 23.22802734 C-92.5773449 27.16486867 -86.11947146 31.60133167 -80 37 C-75.19093077 34.40649112 -70.47484479 31.69370479 -65.81713867 28.83618164 C-53.44157157 21.27324578 -40.54909403 15.15979038 -27.3125 9.25 C-26.29172363 8.78996582 -25.27094727 8.32993164 -24.21923828 7.85595703 C-6.38092128 0 -6.38092128 0 0 0 Z " fill="#1E4F0C" transform="translate(598,1148)"/>
<path d="M0 0 C1.41727958 0.46362531 2.83379727 0.92958004 4.25 1.39648438 C5.03890625 1.65570679 5.8278125 1.9149292 6.640625 2.18200684 C38.76780032 13.32046926 65.58002381 37.30631277 80.85546875 67.4296875 C98.01652941 102.84574098 94.9090609 144.84416849 93 183 C89.20939059 179.41137688 86.14977845 175.61482869 83.1875 171.3125 C79.0015052 165.35509015 74.66443484 159.59565891 70 154 C69.54866699 153.45843262 69.09733398 152.91686523 68.63232422 152.35888672 C59.24230198 141.13485155 49.54705576 131.06144976 38 122 C37.07445312 121.2575 36.14890625 120.515 35.1953125 119.75 C27.2671519 113.56216734 18.82987386 108.76487221 10 104 C8.18597835 103.00276297 6.37314661 102.00335194 4.5625 101 C3.54349609 100.443125 3.54349609 100.443125 2.50390625 99.875 C1 99 1 99 0 98 C-0.09530981 94.95597578 -0.12551639 91.93468292 -0.11352539 88.89038086 C-0.11367142 87.93438492 -0.11381744 86.97838898 -0.1139679 85.99342346 C-0.11326835 82.81720755 -0.10547403 79.64104948 -0.09765625 76.46484375 C-0.09579222 74.26908907 -0.09436825 72.07333398 -0.09336853 69.87757874 C-0.08954219 64.08579367 -0.07971091 58.2940335 -0.06866455 52.5022583 C-0.05845293 46.59721209 -0.05387145 40.69216187 -0.04882812 34.78710938 C-0.03808875 23.19139528 -0.02101093 11.59569971 0 0 Z " fill="#184707" transform="translate(0,939)"/>
<path d="M0 0 C0.78414276 0.00054382 1.56828552 0.00108765 2.37619019 0.00164795 C29.75106976 0.08849608 69.83846576 5.71346576 90.5 26.375 C90.5 28.355 90.5 30.335 90.5 32.375 C12.29 32.375 -65.92 32.375 -146.5 32.375 C-143.38131221 30.81565611 -140.87577123 29.80904373 -137.57739258 28.88208008 C-136.59728714 28.6045137 -135.6171817 28.32694733 -134.6073761 28.04096985 C-133.5471373 27.74514511 -132.4868985 27.44932037 -131.39453125 27.14453125 C-130.2830925 26.83102219 -129.17165375 26.51751312 -128.02653503 26.19450378 C-124.4562393 25.1883968 -120.88440309 24.18788375 -117.3125 23.1875 C-114.98882963 22.53356781 -112.66526088 21.87927443 -110.34179688 21.22460938 C-105.69661624 19.91627943 -101.04995029 18.61340454 -96.40234375 17.3137207 C-91.85307963 16.04007569 -87.30941466 14.74881195 -82.76953125 13.44213867 C-71.19478346 10.12438751 -59.739864 7.13793287 -47.875 5.0625 C-46.58722656 4.82466797 -45.29945313 4.58683594 -43.97265625 4.34179688 C-29.25240914 1.67144049 -14.94459976 -0.03931588 0 0 Z " fill="#276011" transform="translate(507.5,1261.625)"/>
</svg>
